<svg xmlns="http://www.w3.org/2000/svg" width="1600" height="900" fill="none" style="color-scheme:light dark" viewBox="0 0 1600 900"><style>text{font-family:&quot;Space Grotesk&quot;,&quot;Sora&quot;,&quot;IBM Plex Sans&quot;,sans-serif}</style><defs><radialGradient id="glow" cx="0" cy="0" r="1" gradientTransform="rotate(45 -250.416 556.274)scale(420)" gradientUnits="userSpaceOnUse"><stop stop-color="#6366F1" stop-opacity=".35"/><stop offset="1" stop-color="#6366F1" stop-opacity="0"/></radialGradient><clipPath id="heroClip"><rect width="1600" height="900" rx="36"/></clipPath></defs><g clip-path="url(#heroClip)"><path fill="#0B0D12" d="M0 0h1600v900H0z"/><path fill="url(#glow)" d="M0 0h1600v900H0z"/><path stroke="#1F2A37" d="M80 0v900M160 0v900M240 0v900M320 0v900M400 0v900M480 0v900M560 0v900M640 0v900M720 0v900M800 0v900M880 0v900M960 0v900m80-900v900m80-900v900m80-900v900m80-900v900m80-900v900m80-900v900m80-900v900M0 80h1600M0 160h1600M0 240h1600M0 320h1600M0 400h1600M0 480h1600M0 560h1600M0 640h1600M0 720h1600M0 800h1600M0 880h1600" opacity=".25"/><g transform="translate(120 220)scale(6.5625)"><g clip-path="url(#clip0_316_154)"><path fill="url(#paint0_linear_316_154)" d="M52 0H12C5.373 0 0 5.373 0 12v40c0 6.627 5.373 12 12 12h40c6.627 0 12-5.373 12-12V12c0-6.627-5.373-12-12-12"/><path fill="#fff" d="M35 14H13a1 1 0 0 0-1 1v16a1 1 0 0 0 1 1h22a1 1 0 0 0 1-1V15a1 1 0 0 0-1-1" opacity=".9"/><path fill="#E1BEE7" d="M34 16H14v14h20z"/><path fill="#fff" d="M51 14H39a1 1 0 0 0-1 1v16a1 1 0 0 0 1 1h12a1 1 0 0 0 1-1V15a1 1 0 0 0-1-1" opacity=".9"/><path fill="#CE93D8" d="M50 16H40v14h10z"/><path fill="#fff" d="M21 34h-8a1 1 0 0 0-1 1v14a1 1 0 0 0 1 1h8a1 1 0 0 0 1-1V35a1 1 0 0 0-1-1" opacity=".9"/><path fill="#BA68C8" d="M20 36h-6v12h6z"/><path fill="#fff" fill-opacity=".7" stroke="#fff" stroke-width="2" d="M51 35v14H25V35z" opacity=".9"/><path fill="#43A5F5" d="M38 56a8 8 0 1 0 0-16 8 8 0 0 0 0 16"/><path stroke="#fff" stroke-linecap="round" stroke-width="2" d="M38 44.571v6.857M34.572 48h6.857"/></g><defs><linearGradient id="paint0_linear_316_154" x1="0" x2="4096" y1="0" y2="4096" gradientUnits="userSpaceOnUse"><stop stop-color="#9C27B0"/><stop offset="1" stop-color="#7B1FA2"/></linearGradient><clipPath id="clip0_316_154"><path fill="#fff" d="M0 0h64v64H0z"/></clipPath></defs></g><text x="760" y="320" fill="#E6EDF7" font-size="72" font-weight="700" letter-spacing="-.02em">breakpoint-collage-diff</text><text x="760" y="420" fill="#9AA8BD" font-size="30">Collage all breakpoints and catch visual</text><text x="760" y="458" fill="#9AA8BD" font-size="30">regressions fast.</text><g transform="translate(760 540)"><rect width="245" height="40" fill="#111827" stroke="#263142" rx="20"/><text x="123" y="20" fill="#E6EDF7" dominant-baseline="middle" font-size="24" text-anchor="middle">Playwright capture</text></g><g transform="translate(1019 540)"><rect width="170" height="40" fill="#111827" stroke="#263142" rx="20"/><text x="85" y="20" fill="#E6EDF7" dominant-baseline="middle" font-size="24" text-anchor="middle">Collage diff</text></g><g transform="translate(1203 540)"><rect width="170" height="40" fill="#111827" stroke="#263142" rx="20"/><text x="85" y="20" fill="#E6EDF7" dominant-baseline="middle" font-size="24" text-anchor="middle">PR artifacts</text></g></g></svg>